<?xml version="1.0"?>
<svg xmlns="http://www.w3.org/2000/svg" id="Solid" viewBox="0 0 512 512" width="110" height="62"><ellipse cx="256" cy="136" rx="60.931" ry="8"/><path d="M80,440a40.045,40.045,0,0,0,40,40H392a40.045,40.045,0,0,0,40-40V368H80Zm224-48a8,8,0,0,1,16,0v56h24a8,8,0,0,1,0,16H312a8,8,0,0,1-8-8Zm-48-8c17.645,0,32,17.944,32,40a46.906,46.906,0,0,1-5.786,22.9l3.443,3.443a8,8,0,0,1-11.314,11.314L271.6,458.91A27.027,27.027,0,0,1,256,464c-17.645,0-32-17.944-32-40S238.355,384,256,384Zm-72,48a24,24,0,0,1,0-48h16a8,8,0,0,1,0,16H184a8,8,0,0,0,0,16,24,24,0,0,1,0,48H168a8,8,0,0,1,0-16h16a8,8,0,0,0,0-16Z"/><path d="M256,448a10.644,10.644,0,0,0,3.923-.763l-9.58-9.58a8,8,0,0,1,11.314-11.314l8.536,8.536A33.122,33.122,0,0,0,272,424c0-13.009-7.327-24-16-24s-16,10.991-16,24S247.327,448,256,448Z"/><path d="M392,112h28.687L352,43.313V72A40.045,40.045,0,0,0,392,112Z"/><path d="M256,160c-19.8,0-38.5-1.732-52.647-4.877A95.079,95.079,0,0,1,192,151.955v30.416c4.847,3.566,27.225,9.629,64,9.629s59.153-6.063,64-9.629V151.955a95.079,95.079,0,0,1-11.353,3.168C294.5,158.268,275.8,160,256,160Z"/><path d="M256,256c-19.8,0-38.5-1.732-52.647-4.877A95.079,95.079,0,0,1,192,247.955v30.423c4.873,3.568,27.256,9.622,64,9.622s59.127-6.054,64-9.622V247.955a95.079,95.079,0,0,1-11.353,3.168C294.5,254.268,275.8,256,256,256Z"/><path d="M256,208c-19.8,0-38.5-1.732-52.647-4.877A95.079,95.079,0,0,1,192,199.955v30.416c4.847,3.566,27.225,9.629,64,9.629s59.153-6.063,64-9.629V199.955a95.079,95.079,0,0,1-11.353,3.168C294.5,206.268,275.8,208,256,208Z"/><path d="M336,72V32H120A40.045,40.045,0,0,0,80,72V352H432V128H392A56.063,56.063,0,0,1,336,72Zm0,208c0,11.692-15.61,16.514-27.353,19.123C294.5,302.268,275.8,304,256,304s-38.5-1.732-52.647-4.877C191.611,296.514,176,291.692,176,280V136c0-11.692,15.611-16.514,27.353-19.123C217.505,113.732,236.2,112,256,112s38.5,1.732,52.647,4.877C320.39,119.486,336,124.308,336,136Z"/></svg>
